<mxfile host="app.diagrams.net" agent="Mozilla/5.0 (Windows NT 10.0; Win64; x64) AppleWebKit/537.36 (KHTML, like Gecko) Chrome/104.0.0.0 Safari/537.36" version="25.0.3">
  <diagram name="Page-1" id="A-sW8McbFyFyIW_d_HOF">
    <mxGraphModel dx="1050" dy="581" grid="0" gridSize="10" guides="1" tooltips="1" connect="1" arrows="1" fold="1" page="1" pageScale="1" pageWidth="827" pageHeight="1169" math="0" shadow="0">
      <root>
        <mxCell id="0" />
        <mxCell id="1" parent="0" />
        <mxCell id="MVeZ_Xer9YBtuCo50QlA-19" value="" style="edgeStyle=orthogonalEdgeStyle;rounded=0;orthogonalLoop=1;jettySize=auto;html=1;" parent="1" source="MVeZ_Xer9YBtuCo50QlA-1" target="MVeZ_Xer9YBtuCo50QlA-12" edge="1">
          <mxGeometry relative="1" as="geometry" />
        </mxCell>
        <mxCell id="MVeZ_Xer9YBtuCo50QlA-1" value="PR approved and commit merged into &#39;master&#39; branch" style="rounded=0;whiteSpace=wrap;html=1;" parent="1" vertex="1">
          <mxGeometry x="717" y="120" width="120" height="60" as="geometry" />
        </mxCell>
        <mxCell id="MVeZ_Xer9YBtuCo50QlA-18" value="" style="edgeStyle=orthogonalEdgeStyle;rounded=0;orthogonalLoop=1;jettySize=auto;html=1;" parent="1" source="MVeZ_Xer9YBtuCo50QlA-2" target="MVeZ_Xer9YBtuCo50QlA-9" edge="1">
          <mxGeometry relative="1" as="geometry" />
        </mxCell>
        <mxCell id="MVeZ_Xer9YBtuCo50QlA-2" value="PR created with &#39;master&#39; as target branch" style="rounded=0;whiteSpace=wrap;html=1;" parent="1" vertex="1">
          <mxGeometry x="360" y="120" width="120" height="60" as="geometry" />
        </mxCell>
        <mxCell id="MVeZ_Xer9YBtuCo50QlA-16" value="" style="edgeStyle=orthogonalEdgeStyle;rounded=0;orthogonalLoop=1;jettySize=auto;html=1;" parent="1" source="MVeZ_Xer9YBtuCo50QlA-3" target="MVeZ_Xer9YBtuCo50QlA-4" edge="1">
          <mxGeometry relative="1" as="geometry" />
        </mxCell>
        <mxCell id="MVeZ_Xer9YBtuCo50QlA-3" value="PR / Commit into any branch except &#39;master&#39;" style="rounded=0;whiteSpace=wrap;html=1;" parent="1" vertex="1">
          <mxGeometry x="40" y="120" width="120" height="60" as="geometry" />
        </mxCell>
        <mxCell id="MVeZ_Xer9YBtuCo50QlA-17" value="" style="edgeStyle=orthogonalEdgeStyle;rounded=0;orthogonalLoop=1;jettySize=auto;html=1;" parent="1" source="MVeZ_Xer9YBtuCo50QlA-4" target="MVeZ_Xer9YBtuCo50QlA-5" edge="1">
          <mxGeometry relative="1" as="geometry" />
        </mxCell>
        <mxCell id="MVeZ_Xer9YBtuCo50QlA-4" value="Abort Jenkins Build" style="rounded=0;whiteSpace=wrap;html=1;" parent="1" vertex="1">
          <mxGeometry x="40" y="240" width="120" height="60" as="geometry" />
        </mxCell>
        <mxCell id="MVeZ_Xer9YBtuCo50QlA-5" value="Return &#39;ABORTED&#39; result&amp;nbsp;" style="rounded=0;whiteSpace=wrap;html=1;" parent="1" vertex="1">
          <mxGeometry x="40" y="360" width="120" height="60" as="geometry" />
        </mxCell>
        <mxCell id="MVeZ_Xer9YBtuCo50QlA-13" value="" style="edgeStyle=orthogonalEdgeStyle;rounded=0;orthogonalLoop=1;jettySize=auto;html=1;" parent="1" source="MVeZ_Xer9YBtuCo50QlA-6" target="MVeZ_Xer9YBtuCo50QlA-2" edge="1">
          <mxGeometry relative="1" as="geometry" />
        </mxCell>
        <mxCell id="MVeZ_Xer9YBtuCo50QlA-14" style="edgeStyle=orthogonalEdgeStyle;rounded=0;orthogonalLoop=1;jettySize=auto;html=1;entryX=0.5;entryY=0;entryDx=0;entryDy=0;" parent="1" source="MVeZ_Xer9YBtuCo50QlA-6" target="MVeZ_Xer9YBtuCo50QlA-3" edge="1">
          <mxGeometry relative="1" as="geometry" />
        </mxCell>
        <mxCell id="MVeZ_Xer9YBtuCo50QlA-15" style="edgeStyle=orthogonalEdgeStyle;rounded=0;orthogonalLoop=1;jettySize=auto;html=1;entryX=0.5;entryY=0;entryDx=0;entryDy=0;" parent="1" source="MVeZ_Xer9YBtuCo50QlA-6" target="MVeZ_Xer9YBtuCo50QlA-1" edge="1">
          <mxGeometry relative="1" as="geometry" />
        </mxCell>
        <mxCell id="MVeZ_Xer9YBtuCo50QlA-6" value="CI/CD" style="ellipse;whiteSpace=wrap;html=1;" parent="1" vertex="1">
          <mxGeometry x="380" y="40" width="80" height="40" as="geometry" />
        </mxCell>
        <mxCell id="MVeZ_Xer9YBtuCo50QlA-25" style="edgeStyle=orthogonalEdgeStyle;rounded=0;orthogonalLoop=1;jettySize=auto;html=1;entryX=0;entryY=0.5;entryDx=0;entryDy=0;" parent="1" source="MVeZ_Xer9YBtuCo50QlA-7" target="MVeZ_Xer9YBtuCo50QlA-24" edge="1">
          <mxGeometry relative="1" as="geometry">
            <Array as="points">
              <mxPoint x="340" y="500" />
            </Array>
          </mxGeometry>
        </mxCell>
        <mxCell id="MVeZ_Xer9YBtuCo50QlA-7" value="Run INIT -&amp;gt;&amp;nbsp; BUILD" style="rounded=0;whiteSpace=wrap;html=1;" parent="1" vertex="1">
          <mxGeometry x="280" y="360" width="120" height="60" as="geometry" />
        </mxCell>
        <mxCell id="MVeZ_Xer9YBtuCo50QlA-27" style="edgeStyle=orthogonalEdgeStyle;rounded=0;orthogonalLoop=1;jettySize=auto;html=1;entryX=1;entryY=0.5;entryDx=0;entryDy=0;" parent="1" source="MVeZ_Xer9YBtuCo50QlA-8" target="MVeZ_Xer9YBtuCo50QlA-24" edge="1">
          <mxGeometry relative="1" as="geometry" />
        </mxCell>
        <mxCell id="MVeZ_Xer9YBtuCo50QlA-8" value="Run INIT -&amp;gt; KILL -&amp;gt; BUILD -&amp;gt; DEPLOY" style="rounded=0;whiteSpace=wrap;html=1;" parent="1" vertex="1">
          <mxGeometry x="640" y="360" width="120" height="60" as="geometry" />
        </mxCell>
        <mxCell id="MVeZ_Xer9YBtuCo50QlA-20" style="edgeStyle=orthogonalEdgeStyle;rounded=0;orthogonalLoop=1;jettySize=auto;html=1;entryX=0.5;entryY=0;entryDx=0;entryDy=0;" parent="1" source="MVeZ_Xer9YBtuCo50QlA-9" target="MVeZ_Xer9YBtuCo50QlA-7" edge="1">
          <mxGeometry relative="1" as="geometry" />
        </mxCell>
        <mxCell id="MVeZ_Xer9YBtuCo50QlA-29" value="False" style="edgeLabel;html=1;align=center;verticalAlign=middle;resizable=0;points=[];" parent="MVeZ_Xer9YBtuCo50QlA-20" vertex="1" connectable="0">
          <mxGeometry x="0.0185" relative="1" as="geometry">
            <mxPoint x="-2" as="offset" />
          </mxGeometry>
        </mxCell>
        <mxCell id="MVeZ_Xer9YBtuCo50QlA-9" value="use_docker ?" style="rhombus;whiteSpace=wrap;html=1;" parent="1" vertex="1">
          <mxGeometry x="350" y="240" width="140" height="70" as="geometry" />
        </mxCell>
        <mxCell id="MVeZ_Xer9YBtuCo50QlA-26" style="edgeStyle=orthogonalEdgeStyle;rounded=0;orthogonalLoop=1;jettySize=auto;html=1;entryX=0;entryY=0.5;entryDx=0;entryDy=0;" parent="1" source="MVeZ_Xer9YBtuCo50QlA-10" target="MVeZ_Xer9YBtuCo50QlA-24" edge="1">
          <mxGeometry relative="1" as="geometry" />
        </mxCell>
        <mxCell id="MVeZ_Xer9YBtuCo50QlA-10" value="Run INIT -&amp;gt;&amp;nbsp; compose.test.yaml" style="rounded=0;whiteSpace=wrap;html=1;" parent="1" vertex="1">
          <mxGeometry x="440" y="360" width="120" height="60" as="geometry" />
        </mxCell>
        <mxCell id="MVeZ_Xer9YBtuCo50QlA-28" style="edgeStyle=orthogonalEdgeStyle;rounded=0;orthogonalLoop=1;jettySize=auto;html=1;entryX=1;entryY=0.5;entryDx=0;entryDy=0;" parent="1" source="MVeZ_Xer9YBtuCo50QlA-11" target="MVeZ_Xer9YBtuCo50QlA-24" edge="1">
          <mxGeometry relative="1" as="geometry">
            <Array as="points">
              <mxPoint x="860" y="500" />
            </Array>
          </mxGeometry>
        </mxCell>
        <mxCell id="MVeZ_Xer9YBtuCo50QlA-11" value="Run INIT -&amp;gt;&amp;nbsp; compose.yaml" style="rounded=0;whiteSpace=wrap;html=1;" parent="1" vertex="1">
          <mxGeometry x="800" y="360" width="120" height="60" as="geometry" />
        </mxCell>
        <mxCell id="MVeZ_Xer9YBtuCo50QlA-22" style="edgeStyle=orthogonalEdgeStyle;rounded=0;orthogonalLoop=1;jettySize=auto;html=1;entryX=0.5;entryY=0;entryDx=0;entryDy=0;" parent="1" source="MVeZ_Xer9YBtuCo50QlA-12" target="MVeZ_Xer9YBtuCo50QlA-8" edge="1">
          <mxGeometry relative="1" as="geometry" />
        </mxCell>
        <mxCell id="MVeZ_Xer9YBtuCo50QlA-31" value="False" style="edgeLabel;html=1;align=center;verticalAlign=middle;resizable=0;points=[];" parent="MVeZ_Xer9YBtuCo50QlA-22" vertex="1" connectable="0">
          <mxGeometry x="-0.0362" y="1" relative="1" as="geometry">
            <mxPoint x="-3" y="-1" as="offset" />
          </mxGeometry>
        </mxCell>
        <mxCell id="MVeZ_Xer9YBtuCo50QlA-23" style="edgeStyle=orthogonalEdgeStyle;rounded=0;orthogonalLoop=1;jettySize=auto;html=1;entryX=0.5;entryY=0;entryDx=0;entryDy=0;" parent="1" source="MVeZ_Xer9YBtuCo50QlA-12" target="MVeZ_Xer9YBtuCo50QlA-11" edge="1">
          <mxGeometry relative="1" as="geometry" />
        </mxCell>
        <mxCell id="MVeZ_Xer9YBtuCo50QlA-32" value="True" style="edgeLabel;html=1;align=center;verticalAlign=middle;resizable=0;points=[];" parent="MVeZ_Xer9YBtuCo50QlA-23" vertex="1" connectable="0">
          <mxGeometry x="0.0045" y="-2" relative="1" as="geometry">
            <mxPoint x="1" y="-2" as="offset" />
          </mxGeometry>
        </mxCell>
        <mxCell id="MVeZ_Xer9YBtuCo50QlA-12" value="use_docker ?" style="rhombus;whiteSpace=wrap;html=1;" parent="1" vertex="1">
          <mxGeometry x="707" y="240" width="140" height="70" as="geometry" />
        </mxCell>
        <mxCell id="MVeZ_Xer9YBtuCo50QlA-21" style="edgeStyle=orthogonalEdgeStyle;rounded=0;orthogonalLoop=1;jettySize=auto;html=1;entryX=0.5;entryY=0;entryDx=0;entryDy=0;" parent="1" source="MVeZ_Xer9YBtuCo50QlA-9" target="MVeZ_Xer9YBtuCo50QlA-10" edge="1">
          <mxGeometry relative="1" as="geometry" />
        </mxCell>
        <mxCell id="MVeZ_Xer9YBtuCo50QlA-30" value="True" style="edgeLabel;html=1;align=center;verticalAlign=middle;resizable=0;points=[];" parent="MVeZ_Xer9YBtuCo50QlA-21" vertex="1" connectable="0">
          <mxGeometry x="0.0431" relative="1" as="geometry">
            <mxPoint x="1" as="offset" />
          </mxGeometry>
        </mxCell>
        <mxCell id="MVeZ_Xer9YBtuCo50QlA-24" value="Return &#39;PASSED&#39; / &#39;FAILED&#39; result&amp;nbsp;" style="rounded=0;whiteSpace=wrap;html=1;" parent="1" vertex="1">
          <mxGeometry x="540" y="470" width="120" height="60" as="geometry" />
        </mxCell>
      </root>
    </mxGraphModel>
  </diagram>
</mxfile>
